name analog
datacolumns 19
datarows 35
range 0.3015 0.3185
endheader
time	ground_force_vx	ground_force_vy	ground_force_vz	ground_force_px	ground_force_py	ground_force_pz	l_ground_force_vx	l_ground_force_vy	l_ground_force_vz	l_ground_force_px	l_ground_force_py	l_ground_force_pz	ground_torque_x	ground_torque_y	ground_torque_z	l_ground_torque_x	l_ground_torque_y	l_ground_torque_z
0.3015	-0.0	-0.0	-0.0	-0.0	-0.0	-0.0	3.667382478713989	-3.9249634742736816	-494.0072326660156	-0.0	-0.0	-0.0	-0.0	-0.0	-0.0	147582.0625	21490.1796875	621.633544921875
0.302	-0.0	-0.0	-0.0	-0.0	-0.0	-0.0	3.4191765785217285	-3.925090551376343	-495.60009765625	-0.0	-0.0	-0.0	-0.0	-0.0	-0.0	147421.84375	21314.181640625	495.6753234863281
0.3025	-0.0	-0.0	-0.0	-0.0	-0.0	-0.0	3.824750661849976	-4.062797546386719	-495.5635070800781	-0.0	-0.0	-0.0	-0.0	-0.0	-0.0	147619.484375	21382.83984375	545.6117553710938
0.303	-0.0	-0.0	-0.0	-0.0	-0.0	-0.0	3.390714645385742	-4.573109149932861	-496.2220153808594	-0.0	-0.0	-0.0	-0.0	-0.0	-0.0	147655.3125	21404.208984375	515.4352416992188
0.3035	-0.0	-0.0	-0.0	-0.0	-0.0	-0.0	3.44958758354187	-4.778964519500732	-497.19189453125	-0.0	-0.0	-0.0	-0.0	-0.0	-0.0	147887.421875	21272.0	238.5518035888672
0.304	-0.0	-0.0	-0.0	-0.0	-0.0	-0.0	3.3511641025543213	-4.543923377990723	-496.3787841796875	-0.0	-0.0	-0.0	-0.0	-0.0	-0.0	147954.5625	21350.603515625	337.2889404296875
0.3045	-0.0	-0.0	-0.0	-0.0	-0.0	-0.0	3.450686454772949	-4.113298416137695	-498.3177795410156	-0.0	-0.0	-0.0	-0.0	-0.0	-0.0	148254.140625	21304.494140625	294.4098815917969
0.305	-0.0	-0.0	-0.0	-0.0	-0.0	-0.0	3.98078179359436	-3.6609795093536377	-498.1607360839844	-0.0	-0.0	-0.0	-0.0	-0.0	-0.0	148771.78125	21468.927734375	473.5901794433594
0.3055	-0.0	-0.0	-0.0	-0.0	-0.0	-0.0	3.983514070510864	-3.1112308502197266	-499.12890625	-0.0	-0.0	-0.0	-0.0	-0.0	-0.0	148999.59375	21251.6328125	526.4550170898438
0.306	-0.0	-0.0	-0.0	-0.0	-0.0	-0.0	4.947680473327637	-2.914615631103516	-500.2874145507813	-0.0	-0.0	-0.0	-0.0	-0.0	-0.0	149304.671875	21231.70703125	908.9055786132812
0.3065	-0.0	-0.0	-0.0	-0.0	-0.0	-0.0	5.487777233123779	-2.541217088699341	-501.1604309082031	-0.0	-0.0	-0.0	-0.0	-0.0	-0.0	149746.671875	20888.9375	1034.7440185546875
0.307	-0.0	-0.0	-0.0	-0.0	-0.0	-0.0	5.588779449462891	-1.6099753379821775	-504.0153503417969	-0.0	-0.0	-0.0	-0.0	-0.0	-0.0	150180.03125	21035.01953125	1324.8887939453125
0.3075	-0.0	-0.0	-0.0	-0.0	-0.0	-0.0	6.597914218902588	-1.317497968673706	-504.364013671875	-0.0	-0.0	-0.0	-0.0	-0.0	-0.0	150788.359375	21072.576171875	1638.3409423828125
0.308	-0.0	-0.0	-0.0	-0.0	-0.0	-0.0	7.239766597747803	-0.998884379863739	-505.571533203125	-0.0	-0.0	-0.0	-0.0	-0.0	-0.0	151131.953125	21054.77734375	1992.3858642578125
0.3085	-0.0	-0.0	-0.0	-0.0	-0.0	-0.0	7.792818546295166	-0.047524943947792	-506.0820007324219	-0.0	-0.0	-0.0	-0.0	-0.0	-0.0	151496.109375	21013.640625	2132.22998046875
0.309	-0.0	-0.0	-0.0	-0.0	-0.0	-0.0	7.847652912139893	0.108783483505249	-507.2108154296875	-0.0	-0.0	-0.0	-0.0	-0.0	-0.0	151645.890625	20847.140625	2260.075927734375
0.3095	-0.0	-0.0	-0.0	-0.0	-0.0	-0.0	7.847806930541992	1.1748881340026855	-508.2023620605469	-0.0	-0.0	-0.0	-0.0	-0.0	-0.0	151953.21875	20820.498046875	2340.369140625
0.31	-0.0	-0.0	-0.0	-0.0	-0.0	-0.0	8.093374252319336	1.3866314888000488	-508.5744018554688	-0.0	-0.0	-0.0	-0.0	-0.0	-0.0	152230.140625	21057.228515625	2477.12890625
0.3105	-0.0	-0.0	-0.0	-0.0	-0.0	-0.0	7.983970642089844	2.052077531814575	-508.36474609375	-0.0	-0.0	-0.0	-0.0	-0.0	-0.0	152041.15625	20769.986328125	2578.142333984375
0.311	-0.0	-0.0	-0.0	-0.0	-0.0	-0.0	7.848235607147217	2.499073266983032	-509.5152587890625	-0.0	-0.0	-0.0	-0.0	-0.0	-0.0	152261.6875	20588.306640625	2719.583740234375
0.3115	-0.0	-0.0	-0.0	-0.0	-0.0	-0.0	8.093588829040527	2.384685516357422	-508.384765625	-0.0	-0.0	-0.0	-0.0	-0.0	-0.0	152236.078125	20618.671875	2871.49072265625
0.312	-0.0	-0.0	-0.0	-0.0	-0.0	-0.0	8.380782127380371	2.893723487854004	-508.1808166503906	-0.0	-0.0	-0.0	-0.0	-0.0	-0.0	151974.859375	20658.787109375	2995.74658203125
0.3125	-0.0	-0.0	-0.0	-0.0	-0.0	-0.0	8.567370414733887	3.2259912490844727	-506.7491149902344	-0.0	-0.0	-0.0	-0.0	-0.0	-0.0	152106.515625	20613.69921875	3046.720947265625
0.313	-0.0	-0.0	-0.0	-0.0	-0.0	-0.0	8.558478355407715	2.960879325866699	-506.885009765625	-0.0	-0.0	-0.0	-0.0	-0.0	-0.0	151904.203125	20699.1171875	3120.150390625
0.3135	-0.0	-0.0	-0.0	-0.0	-0.0	-0.0	8.448722839355469	2.0947155952453613	-506.68701171875	-0.0	-0.0	-0.0	-0.0	-0.0	-0.0	151703.65625	20798.109375	3181.90234375
0.314	-0.0	-0.0	-0.0	-0.0	-0.0	-0.0	8.005232810974121	1.6321287155151367	-507.8338012695313	-0.0	-0.0	-0.0	-0.0	-0.0	-0.0	151917.765625	20871.3515625	3091.168212890625
0.3145	-0.0	-0.0	-0.0	-0.0	-0.0	-0.0	8.225410461425781	1.632282018661499	-507.83441162109375	-0.0	-0.0	-0.0	-0.0	-0.0	-0.0	151725.140625	20825.55859375	3143.51708984375
0.315	-0.0	-0.0	-0.0	-0.0	-0.0	-0.0	7.739251613616943	1.7481584548950195	-508.2684631347656	-0.0	-0.0	-0.0	-0.0	-0.0	-0.0	151642.140625	21121.93359375	3009.176513671875
0.3155	-0.0	-0.0	-0.0	-0.0	-0.0	-0.0	6.7606964111328125	1.2337151765823364	-506.5124206542969	-0.0	-0.0	-0.0	-0.0	-0.0	-0.0	151405.265625	21153.634765625	2763.877197265625
0.316	-0.0	-0.0	-0.0	-0.0	-0.0	-0.0	6.518996238708496	1.0359185934066772	-507.22265625	-0.0	-0.0	-0.0	-0.0	-0.0	-0.0	151298.875	21285.0625	2881.477783203125
0.3165	-0.0	-0.0	-0.0	-0.0	-0.0	-0.0	6.499714374542236	1.3226360082626345	-508.5436706542969	-0.0	-0.0	-0.0	-0.0	-0.0	-0.0	151601.484375	21256.0625	3068.322021484375
0.317	-0.0	-0.0	-0.0	-0.0	-0.0	-0.0	6.787346839904785	1.4818073511123655	-508.5354919433594	-0.0	-0.0	-0.0	-0.0	-0.0	-0.0	151557.3125	21564.1015625	3038.839111328125
0.3175	-0.0	-0.0	-0.0	-0.0	-0.0	-0.0	6.410581111907959	1.3898451328277588	-508.7931518554688	-0.0	-0.0	-0.0	-0.0	-0.0	-0.0	151661.109375	21644.126953125	3097.251708984375
0.318	-0.0	-0.0	-0.0	-0.0	-0.0	-0.0	6.6765217781066895	1.6563751697540283	-508.2679443359375	-0.0	-0.0	-0.0	-0.0	-0.0	-0.0	151614.71875	21745.46484375	3202.046142578125
0.3185	-0.0	-0.0	-0.0	-0.0	-0.0	-0.0	6.542688369750977	1.6781120300292969	-508.4552307128906	-0.0	-0.0	-0.0	-0.0	-0.0	-0.0	151282.65625	21563.64453125	3230.77490234375
